<svg xmlns="http://www.w3.org/2000/svg" viewBox="0 0 967.46 1117.14"><defs><style>.cls-1{fill:#fff;}</style></defs><g id="圖層_2" data-name="圖層 2"><g id="圖層_2-2" data-name="圖層 2"><path class="cls-1" d="M197.18,328.47H348.5L484.34,687.39l125-358.92H764.12v23H726.33q-20,0-26.89,5.84t-6.91,20.28V737.47q0,10.77,8.3,16.6t28.57,5.83h34.72V783h-208V759.9H595q16.66,0,24.69-6.29a19.63,19.63,0,0,0,8-16.14v-386L477.41,783h-20.7L294.9,353.36V683.69q0,29.52,7.37,44.1a52.44,52.44,0,0,0,21.05,22.43q13.68,7.83,45.33,9.68V783H197.18V759.9q42.1-2.76,57.16-18.13t15.06-54.38V374q0-11.67-7.07-17.05t-26.43-5.38H197.18Z"/><path class="cls-1" d="M483.72,1117.14,0,837.85V279.29L483.72,0,967.46,279.29V837.85ZM33.63,818.44,483.72,1078.3,933.83,818.44V298.7L483.72,38.84,33.63,298.7Z"/></g></g></svg>